<svg width="490" height="61" viewBox="0 0 490 61" fill="none" xmlns="http://www.w3.org/2000/svg">
<path d="M10.2747 20.6341C10.2747 9.78024 19.0734 0.981445 29.9273 0.981445V0.981445V29.426H10.2747V20.6341Z" fill="#00F999" stroke="#00F999" stroke-width="0.805851"/>
<rect x="10.2747" y="29.426" width="19.6526" height="1.93794" fill="#00F999" stroke="#00F999" stroke-width="0.805851"/>
<path fill-rule="evenodd" clip-rule="evenodd" d="M10.6315 43.9026C10.3974 42.6898 10.2748 41.4372 10.2748 40.156V31.364H29.9274V59.8086C25.1684 59.8086 20.8044 58.117 17.404 55.3023C14.0117 57.5623 8.57201 59.7106 2 58.5157C3.81011 57.7399 10.792 53.0853 10.5334 43.7762C10.5647 43.8193 10.5975 43.8614 10.6315 43.9026Z" fill="#00F999"/>
<path d="M10.6315 43.9026L10.3208 44.1592L11.0271 43.8262L10.6315 43.9026ZM10.2748 31.364V30.9611H9.87183V31.364H10.2748ZM29.9274 31.364H30.3303V30.9611H29.9274V31.364ZM29.9274 59.8086V60.2115H30.3303V59.8086H29.9274ZM17.404 55.3023L17.661 54.992L17.4301 54.8008L17.1806 54.967L17.404 55.3023ZM2 58.5157L1.84128 58.1453L0.610886 58.6726L1.92792 58.9121L2 58.5157ZM10.5334 43.7762L10.8592 43.5392L10.0945 42.4877L10.1306 43.7874L10.5334 43.7762ZM9.87183 40.156C9.87183 41.4629 9.9969 42.7411 10.2358 43.979L11.0271 43.8262C10.7978 42.6384 10.6777 41.4114 10.6777 40.156H9.87183ZM9.87183 31.364V40.156H10.6777V31.364H9.87183ZM29.9274 30.9611H10.2748V31.7669H29.9274V30.9611ZM30.3303 59.8086V31.364H29.5245V59.8086H30.3303ZM17.1471 55.6127C20.6171 58.485 25.0711 60.2115 29.9274 60.2115V59.4057C25.2656 59.4057 20.9918 57.749 17.661 54.992L17.1471 55.6127ZM1.92792 58.9121C8.62827 60.1303 14.1726 57.9392 17.6274 55.6377L17.1806 54.967C13.8507 57.1854 8.51574 59.2908 2.07208 58.1192L1.92792 58.9121ZM10.1306 43.7874C10.2568 48.3307 8.61843 51.731 6.72782 54.0942C4.8293 56.4674 2.68461 57.7839 1.84128 58.1453L2.15872 58.886C3.1255 58.4717 5.3768 57.073 7.35708 54.5976C9.34528 52.1124 11.0685 48.5308 10.9361 43.765L10.1306 43.7874ZM10.9421 43.646C10.9133 43.6111 10.8856 43.5755 10.8592 43.5392L10.2075 44.0132C10.2438 44.0631 10.2816 44.1118 10.3208 44.1592L10.9421 43.646Z" fill="#00F999"/>
<rect width="439.42" height="58.8271" transform="translate(29.9275 0.981445)" fill="#00F999"/>
<path d="M489 20.6341C489 9.78024 480.201 0.981445 469.347 0.981445V0.981445V29.426H489V20.6341Z" fill="#00F999" stroke="#00F999" stroke-width="0.805851"/>
<rect width="19.6526" height="1.93794" transform="matrix(-1 0 0 1 489 29.426)" fill="#00F999" stroke="#00F999" stroke-width="0.805851"/>
<path d="M489 40.156C489 51.0098 480.201 59.8086 469.347 59.8086V59.8086V31.364H489V40.156Z" fill="#00F999" stroke="#00F999" stroke-width="0.805851"/>
</svg>
