<svg width="804" height="61" viewBox="0 0 804 61" fill="none" xmlns="http://www.w3.org/2000/svg">
<path d="M10.2747 20.6341C10.2747 9.78024 19.0734 0.981445 29.9273 0.981445V0.981445V29.426H10.2747V20.6341Z" fill="#00F999" stroke="#00F999" stroke-width="0.805851"/>
<rect x="10.2747" y="29.4263" width="19.6526" height="1.93794" fill="#00F999" stroke="#00F999" stroke-width="0.805851"/>
<path fill-rule="evenodd" clip-rule="evenodd" d="M10.6315 43.9024C10.3974 42.6895 10.2748 41.4369 10.2748 40.1557V31.3638H29.9274V59.8084C25.1684 59.8084 20.8044 58.1168 17.404 55.3021C14.0117 57.5621 8.57201 59.7103 2 58.5154C3.81011 57.7397 10.792 53.0851 10.5334 43.7759C10.5647 43.8191 10.5975 43.8612 10.6315 43.9024Z" fill="#00F999"/>
<path d="M10.6315 43.9024L10.3208 44.159L11.0271 43.826L10.6315 43.9024ZM10.2748 31.3638V30.9608H9.87183V31.3638H10.2748ZM29.9274 31.3638H30.3303V30.9608H29.9274V31.3638ZM29.9274 59.8084V60.2113H30.3303V59.8084H29.9274ZM17.404 55.3021L17.661 54.9917L17.4301 54.8006L17.1806 54.9668L17.404 55.3021ZM2 58.5154L1.84128 58.1451L0.610886 58.6724L1.92792 58.9118L2 58.5154ZM10.5334 43.7759L10.8592 43.539L10.0945 42.4875L10.1306 43.7871L10.5334 43.7759ZM9.87183 40.1557C9.87183 41.4627 9.9969 42.7408 10.2358 43.9787L11.0271 43.826C10.7978 42.6382 10.6777 41.4112 10.6777 40.1557H9.87183ZM9.87183 31.3638V40.1557H10.6777V31.3638H9.87183ZM29.9274 30.9608H10.2748V31.7667H29.9274V30.9608ZM30.3303 59.8084V31.3638H29.5245V59.8084H30.3303ZM17.1471 55.6125C20.6171 58.4848 25.0711 60.2113 29.9274 60.2113V59.4054C25.2656 59.4054 20.9918 57.7488 17.661 54.9917L17.1471 55.6125ZM1.92792 58.9118C8.62827 60.1301 14.1726 57.939 17.6274 55.6374L17.1806 54.9668C13.8507 57.1852 8.51574 59.2906 2.07208 58.119L1.92792 58.9118ZM10.1306 43.7871C10.2568 48.3305 8.61843 51.7307 6.72782 54.094C4.8293 56.4671 2.68461 57.7836 1.84128 58.1451L2.15872 58.8858C3.1255 58.4714 5.3768 57.0728 7.35708 54.5974C9.34528 52.1122 11.0685 48.5305 10.9361 43.7648L10.1306 43.7871ZM10.9421 43.6457C10.9133 43.6108 10.8856 43.5753 10.8592 43.539L10.2075 44.0129C10.2438 44.0629 10.2816 44.1116 10.3208 44.159L10.9421 43.6457Z" fill="#00F999"/>
<rect width="753.42" height="58.8271" transform="translate(29.9275 0.981445)" fill="#00F999"/>
<path d="M803 20.6341C803 9.78024 794.201 0.981445 783.347 0.981445V0.981445V29.426H803V20.6341Z" fill="#00F999" stroke="#00F999" stroke-width="0.805851"/>
<rect width="19.6526" height="1.93794" transform="matrix(-1 0 0 1 803 29.4263)" fill="#00F999" stroke="#00F999" stroke-width="0.805851"/>
<path d="M803 40.156C803 51.0098 794.201 59.8086 783.347 59.8086V59.8086V31.364H803V40.156Z" fill="#00F999" stroke="#00F999" stroke-width="0.805851"/>
</svg>
